<svg id="Layer_1" data-name="Layer 1" xmlns="http://www.w3.org/2000/svg" viewBox="0 0 512 512"><title>one-leg-arm-raised-flat</title><rect y="9.14" width="512" height="493.72" rx="54.99" ry="54.99" transform="translate(512) rotate(90)" fill="#e6d6a6"/><rect x="20.24" y="11.1" width="471.53" height="489.81" rx="43.89" ry="43.89" fill="#b9a468"/><path d="M243.22,151.52q14.42.62,25.15-10.2t11.29-26.9c.06-1.2.07-2.4,0-3.59a39.09,39.09,0,0,0-9-24.18A32.92,32.92,0,0,0,253.8,75.32a33.51,33.51,0,0,0-7.24-1.06,34.42,34.42,0,0,0-7.21.44,32.33,32.33,0,0,0-17.82,9.83,39.11,39.11,0,0,0-11.39,26.3c0,.19,0,.38,0,.59a39.44,39.44,0,0,0,9.05,27.77q9.7,11.7,24,12.33Z" fill="#e6d6a6"/><path d="M409.64,144.71A19.35,19.35,0,0,0,383.39,137C352,154.21,316.78,163.3,278.72,164.08a7,7,0,0,1-1.63-.46l-1.62-.46-3.25-.91c-2.16-.59-4.32-1.17-6.49-1.7a130.48,130.48,0,0,0-13-2.53,102.59,102.59,0,0,0-12.91-1,125.32,125.32,0,0,0-12.82.55c-5.24.47-10.56.93-15.74,1.83a27.49,27.49,0,0,0-4.15,1c-1,.33-2,.73-2.92,1.15l-.17,0v0c-32.13,14.24-58.23,37.9-77.61,70.37a19.33,19.33,0,0,0-.33,19.24c-8.59,16.27-17,36.7-25.14,60.87a19.35,19.35,0,1,0,36.68,12.3,419.83,419.83,0,0,1,18-45.8c21.36,6.88,49.09,16.21,82.77,27.84,1.67,37.76,2.33,75.25,2,111.73a19.35,19.35,0,0,0,19.14,19.54h.2a19.35,19.35,0,0,0,19.34-19.14c.45-43.42-.54-88.22-2.93-133.21l3.55-82.65C324,201.82,365.07,191.15,402,171a19.35,19.35,0,0,0,7.69-26.26ZM200.16,252.57q-18.85-6.33-33.73-11.11a130.11,130.11,0,0,1,35.71-34.92Z" fill="#e6d6a6"/></svg>