<svg id="Layer_1" data-name="Layer 1" xmlns="http://www.w3.org/2000/svg" viewBox="0 0 512 512"><title>spread-arms-bent-legs-flat</title><rect y="9.14" width="512" height="493.73" rx="54.99" ry="54.99" transform="translate(512) rotate(90)" fill="#e6d6a6"/><rect x="20.23" y="11.1" width="471.53" height="489.81" rx="43.89" ry="43.89" fill="#b79148"/><path d="M255.59,162.58q14.42,0,24.65-11.29T290.38,124q0-16.07-10.14-27.36A32.68,32.68,0,0,0,262.86,86a34.13,34.13,0,0,0-14.48,0A32.55,32.55,0,0,0,231,96.6Q220.77,107.89,220.77,124A39.4,39.4,0,0,0,231,151.29q10.21,11.3,24.59,11.29Z" fill="#e6d6a6"/><path d="M428,184.34a19.34,19.34,0,0,0-22.38-15.73c-42.27,7.37-79.92,9.25-112,5.61q-39.53-11.91-76.68.15c-31.78,3.43-69,1.51-110.65-5.76a19.34,19.34,0,1,0-6.65,38.11c30.53,5.33,59,8,85.25,8q16.62,0,32-1.44v70.5c-33.06,20.18-51.59,41-56.44,63.33a293.55,293.55,0,0,0-7.12,60.19,19.34,19.34,0,0,0,19.23,19.46h.12A19.35,19.35,0,0,0,192,407.52a254.6,254.6,0,0,1,6.24-52.2c1.72-7.91,11.12-24.62,54.74-47.54a19.65,19.65,0,0,0,2.48-1.56,19.12,19.12,0,0,0,2.48,1.56c43.62,22.92,53,39.63,54.74,47.54a254.7,254.7,0,0,1,6.24,52.2,19.35,19.35,0,0,0,19.34,19.23h.12a19.34,19.34,0,0,0,19.23-19.46,293.65,293.65,0,0,0-7.12-60.19c-4.85-22.29-23.32-43.08-56.25-63.22V213.2q15.72,1.51,32.79,1.52c26.2,0,54.73-2.67,85.26-8A19.35,19.35,0,0,0,428,184.34Z" fill="#e6d6a6"/></svg>