<svg id="Layer_1" data-name="Layer 1" xmlns="http://www.w3.org/2000/svg" viewBox="0 0 512 512"><title>stretching-right-flat</title><path d="M55,9.14H457a55,55,0,0,1,55,55V447.88a55,55,0,0,1-55,55H55a55,55,0,0,1-55-55V64.12A55,55,0,0,1,55,9.14Z" transform="translate(512) rotate(90)" fill="#e6d6a6"/><rect x="20.23" y="11.1" width="471.53" height="489.81" rx="43.89" ry="43.89" fill="#e48034"/><path d="M391.57,163.35a35.28,35.28,0,0,0-3-6.77,32.37,32.37,0,0,0-4.24-5.87,31.75,31.75,0,0,0-6.3-5.34,34.81,34.81,0,0,0-11.45-4.59q-14.92-3.28-28.86,4.65t-18.69,22.37q-4.81,14.48,2.27,27t22,15.85A39.93,39.93,0,0,0,372.13,206a47.39,47.39,0,0,0,5.93-4,38.9,38.9,0,0,0,12.88-18.34,32.67,32.67,0,0,0,.63-20.28Z" fill="#e6d6a6"/><path d="M329.6,225.31l.13-.16q-15.39-24.55-37.6-39.45c13.69-21.84,35.22-44.41,64.37-67.41a19.34,19.34,0,1,0-24-30.37c-23.57,18.6-43.06,37.41-57.94,55.91-15.45,19.21-26.44,38.73-32.66,58a19.33,19.33,0,0,0-.87,7.49L164.8,297.27c-22,16.44-34.69,33.4-38.58,51.33a293.31,293.31,0,0,0-7.12,60.19,19.34,19.34,0,0,0,19.23,19.46h.12A19.35,19.35,0,0,0,157.79,409a254.58,254.58,0,0,1,6.24-52.2c1.72-7.92,11.12-24.62,54.74-47.54a19.16,19.16,0,0,0,2.48-1.55,19,19,0,0,0,2.48,1.55c43.62,22.92,53,39.63,54.74,47.55A254.84,254.84,0,0,1,284.72,409a19.34,19.34,0,0,0,19.34,19.23h.12a19.34,19.34,0,0,0,19.22-19.46,293.22,293.22,0,0,0-7.12-60.19c-2.2-10.14-7.24-20-15.16-29.57,16.91-3.47,34.32-7.16,51.9-11a19.34,19.34,0,0,0,12.17-29.32c-11.09-17.35-23.06-35.3-35.59-53.39Zm-45.83,57.76a19.3,19.3,0,0,0-6.68,2.73l26.32-30.32q7.1,10.37,13.92,20.63c-11.37,2.4-22.59,4.73-33.55,7Z" fill="#e6d6a6"/></svg>