<svg id="Layer_1" data-name="Layer 1" xmlns="http://www.w3.org/2000/svg" viewBox="0 0 512 512"><title>one-leg-raised-flat</title><rect y="9.14" width="512" height="493.72" rx="54.99" ry="54.99" transform="translate(512) rotate(90)" fill="#e6d6a6"/><rect x="20.23" y="11.1" width="471.53" height="489.81" rx="43.89" ry="43.89" fill="#809b52"/><path d="M344.93,245.72a304.7,304.7,0,0,0-31.83-74,19.3,19.3,0,0,0-13-9.09v-.2q-37-11.73-72.22-2.31a19.35,19.35,0,0,0-3.94,1.12l-1.21.37v.17a19.24,19.24,0,0,0-6.18,4.75,401.67,401.67,0,0,0-47.84,68.69,19.34,19.34,0,0,0,1.45,20.91c19.22,25.74,35.74,47.19,49.23,63.93,0,.33,0,.67,0,1,0,0,0,.06,0,.1l-.15,9.52v0c0,.84-.18,4.54-.84,19.06A19.34,19.34,0,0,0,236.86,370c.3,0,.59,0,.89,0a19.35,19.35,0,0,0,19.31-18.47c.57-12.71.81-17.79.85-20.23h0l.06-3.55,1.89-1.09c-.32,31.19-1.3,62.09-3,92.27a19.35,19.35,0,0,0,18.24,20.39l1.08,0A19.34,19.34,0,0,0,295.54,421c2.19-39.46,3.24-80.1,3.15-121q19.55-15.19,40.79-34.91a19.35,19.35,0,0,0,5.46-19.38ZM222.1,222.49l-.43,37.59q-6.18-8.09-12.86-17Q215.08,232.6,222.1,222.49Zm77.07,26.88.2-18.08q2.63,6.72,4.88,13.57Q301.69,247.17,299.16,249.38Z" fill="#e6d6a6"/><path d="M261.54,150q14.42.17,24.81-11t10.46-27.23Q297,95.68,287,84.3a32.69,32.69,0,0,0-17.29-10.76,33.19,33.19,0,0,0-7.27-.85,30.91,30.91,0,0,0-7.2.68,32.67,32.67,0,0,0-17.48,10.4Q227.35,94.91,227.18,111a39.39,39.39,0,0,0,9.95,27.49q10.05,11.41,24.41,11.55Z" fill="#e6d6a6"/></svg>