<svg id="Layer_1" data-name="Layer 1" xmlns="http://www.w3.org/2000/svg" viewBox="0 0 512 512"><title>bent-legs-one-raised-arm-flat</title><rect y="9.14" width="512" height="493.72" rx="54.99" ry="54.99" transform="translate(512) rotate(90)" fill="#e6d6a6"/><rect x="20.23" y="11.1" width="471.53" height="489.81" rx="43.89" ry="43.89" fill="#57595b"/><path d="M250.13,166.45q14.42,0,24.65-11.3t10.14-27.33q0-16.07-10.14-27.36a32.28,32.28,0,0,0-49.23,0q-10.24,11.3-10.24,27.36a39.39,39.39,0,0,0,10.24,27.33q10.2,11.3,24.58,11.3Z" fill="#e6d6a6"/><path d="M353.08,293.89c-24.44-36.57-41.66-71.05-51.17-102.49a19.32,19.32,0,0,0-13.12-13v-.14q-31.59-9.66-61.65-4c-14.49-22.76-25.54-54-32.94-93.32a19.34,19.34,0,0,0-38,7.16c5.56,29.51,13.19,55.5,22.68,77.25,9,20.62,19.94,38.05,32.56,51.93v72.05C181.92,318,165.58,344,161.59,368.59c-3.9,24-5.84,43.22-5.93,58.78a19.35,19.35,0,0,0,19.23,19.45H175a19.35,19.35,0,0,0,19.34-19.23c.08-13.35,1.9-31.11,5.43-52.79,3.69-22.67,28.56-49.06,48.77-67.21A20.3,20.3,0,0,0,250.1,306a19.43,19.43,0,0,0,1.55,1.57c20.21,18.15,45.09,44.54,48.77,67.21,3.52,21.68,5.35,39.44,5.43,52.79a19.35,19.35,0,0,0,19.34,19.23h.12a19.34,19.34,0,0,0,19.23-19.45c-.09-15.57-2-34.79-5.93-58.78-4-24.54-20.34-50.56-49.83-79.25V261a534.45,534.45,0,0,0,32.12,54.4,19.34,19.34,0,1,0,32.16-21.5Z" fill="#e6d6a6"/></svg>