<svg id="Layer_1" data-name="Layer 1" xmlns="http://www.w3.org/2000/svg" viewBox="0 0 512 512"><title>bent-legs-raised-arms-flat</title><rect y="9.14" width="512" height="493.73" rx="54.99" ry="54.99" transform="translate(512) rotate(90)" fill="#e6d6a6"/><rect x="20.23" y="11.1" width="471.53" height="489.81" rx="43.89" ry="43.89" fill="#906d88"/><path d="M351,358.16c-4.84-22.28-23.3-43.06-56.22-63.2V228.52a19.28,19.28,0,0,0,7.15-4c15.52-13.62,27.56-31.88,35.78-54.26,7.79-21.2,12.36-46.75,13.59-75.93a19.35,19.35,0,1,0-38.66-1.62c-1.68,40.07-10.19,70.52-25.33,90.84q-32-8-62.41-.12c-15.08-20.32-23.56-50.73-25.24-90.72A19.34,19.34,0,1,0,161,94.35c1.22,29.18,5.79,54.73,13.59,75.93,8.23,22.39,20.26,40.64,35.78,54.26a19.28,19.28,0,0,0,7,3.94v66.32c-33.08,20.18-51.62,41-56.47,63.35a293.49,293.49,0,0,0-7.12,60.19,19.35,19.35,0,0,0,19.23,19.46h.12a19.34,19.34,0,0,0,19.34-19.23,255,255,0,0,1,6.24-52.2c1.72-7.92,11.12-24.62,54.74-47.54a19.35,19.35,0,0,0,2.48-1.55,19.57,19.57,0,0,0,2.49,1.55c43.62,22.93,53,39.63,54.74,47.55a254.82,254.82,0,0,1,6.24,52.19,19.35,19.35,0,0,0,19.34,19.23h.12a19.34,19.34,0,0,0,19.23-19.46A293.11,293.11,0,0,0,351,358.16Z" fill="#e6d6a6"/><path d="M256.15,173.82q14.42,0,24.65-11.29t10.14-27.33q0-16.07-10.14-27.36a32.69,32.69,0,0,0-17.38-10.58,34.11,34.11,0,0,0-14.48,0,32.54,32.54,0,0,0-17.38,10.58q-10.24,11.29-10.23,27.36a39.4,39.4,0,0,0,10.23,27.33Q241.77,173.82,256.15,173.82Z" fill="#e6d6a6"/></svg>