<svg id="Layer_1" data-name="Layer 1" xmlns="http://www.w3.org/2000/svg" viewBox="0 0 512 512"><title>hold-leg-tight-flat</title><rect y="9.14" width="512" height="493.72" rx="54.99" ry="54.99" transform="translate(512) rotate(90)" fill="#e6d6a6"/><rect x="20.24" y="11.1" width="471.53" height="489.81" rx="43.89" ry="43.89" fill="#b94355"/><path d="M268.91,151.51q14.41.63,25.15-10.2t11.29-26.9q.09-1.81,0-3.59a39.05,39.05,0,0,0-9-24.18,32.91,32.91,0,0,0-16.94-11.33,33.65,33.65,0,0,0-7.24-1.06,34.14,34.14,0,0,0-7.21.44,32.39,32.39,0,0,0-17.82,9.83,39.11,39.11,0,0,0-11.39,26.3,5.12,5.12,0,0,0,0,.59,39.47,39.47,0,0,0,9.05,27.77q9.7,11.7,24.05,12.32Z" fill="#e6d6a6"/><path d="M373.85,218.77a304.65,304.65,0,0,0-62-51.45,19.45,19.45,0,0,0-5.11-2.26V165q-36.85-13-72.47-4.58a19.43,19.43,0,0,0-2.42.57l-.45.14-2,.52v.09a421,421,0,0,0-74.92,31.89l-.22.12a18.82,18.82,0,0,0-2.21,1.3,19.35,19.35,0,0,0-8.51,22.78c6.93,20.78,12.74,38.48,17.31,52.78a459,459,0,0,0-26,47.84,19.35,19.35,0,1,0,34.93,16.64A417.72,417.72,0,0,1,194,290.67c15.49,5.45,37.95,13,68,22.9a18.72,18.72,0,0,0,2.19.56c1.43,35.19,2,70.08,1.64,104.1a19.35,19.35,0,0,0,19.15,19.54h.2a19.34,19.34,0,0,0,19.34-19.14c.45-43.4-.54-88.21-2.93-133.21l3.28-76.21a265.69,265.69,0,0,1,32.39,27.31A502,502,0,0,1,317,282.73a19.35,19.35,0,1,0,34.52,17.49,572.18,572.18,0,0,0,26.31-61.7,19.32,19.32,0,0,0-3.94-19.75ZM227.67,203.14l-2.46,57.37c-13.19-4.48-23.33-8.05-30.33-10.65q-4.17-12.92-9.42-28.76a382.62,382.62,0,0,1,42.22-18Z" fill="#e6d6a6"/></svg>