<svg id="Layer_1" data-name="Layer 1" xmlns="http://www.w3.org/2000/svg" viewBox="0 0 512 512"><title>bent-legs-right-arm-raised-flat</title><polygon points="76.97 8.4 78.32 7.64 76.97 7.64 76.97 8.4" fill="#e6d6a6" fill-rule="evenodd"/><rect y="9.14" width="512" height="493.72" rx="54.99" ry="54.99" transform="translate(512) rotate(90)" fill="#e6d6a6"/><rect x="20.23" y="11.1" width="471.53" height="489.81" rx="43.89" ry="43.89" fill="#647980"/><path d="M261.87,166.45q-14.42,0-24.65-11.29t-10.14-27.33q0-16.07,10.14-27.36a32.69,32.69,0,0,1,17.38-10.58,33.19,33.19,0,0,1,7.27-.78,31.83,31.83,0,0,1,24.58,11.35q10.23,11.3,10.23,27.36a39.41,39.41,0,0,1-10.23,27.33Q276.24,166.45,261.87,166.45Z" fill="#e6d6a6"/><path d="M158.92,293.89c24.44-36.57,41.66-71.05,51.17-102.49a19.33,19.33,0,0,1,13.12-13v-.15q31.59-9.66,61.65-4c14.49-22.76,25.54-54,32.94-93.32a19.34,19.34,0,1,1,38,7.16c-5.56,29.51-13.19,55.51-22.68,77.26-9,20.62-19.93,38.05-32.56,51.93v72.05c29.49,28.68,45.84,54.7,49.83,79.25,3.9,24,5.84,43.22,5.93,58.78a19.34,19.34,0,0,1-19.23,19.45H337a19.35,19.35,0,0,1-19.35-19.23c-.08-13.35-1.9-31.11-5.43-52.8-3.68-22.67-28.55-49.06-48.77-67.21A19.5,19.5,0,0,1,261.9,306a19.85,19.85,0,0,1-1.55,1.57c-20.22,18.15-45.09,44.54-48.77,67.21-3.53,21.68-5.35,39.44-5.43,52.8a19.34,19.34,0,0,1-19.34,19.23h-.12a19.34,19.34,0,0,1-19.23-19.45c.09-15.57,2-34.79,5.93-58.78,4-24.54,20.34-50.56,49.83-79.25V261a534.88,534.88,0,0,1-32.12,54.4,19.35,19.35,0,0,1-32.17-21.5Z" fill="#e6d6a6"/></svg>