<svg id="Layer_1" data-name="Layer 1" xmlns="http://www.w3.org/2000/svg" viewBox="0 0 512 512"><title>standing-arms-raised-flat</title><rect y="9.14" width="512" height="493.72" rx="54.99" ry="54.99" transform="translate(512) rotate(90)" fill="#e6d6a6"/><rect x="20.23" y="11.1" width="471.53" height="489.81" rx="43.89" ry="43.89" fill="#87884a"/><path d="M256,160.17q14.41,0,24.65-11.3t10.14-27.33q0-16.07-10.14-27.36a32.29,32.29,0,0,0-49.24,0q-10.23,11.3-10.23,27.36a39.42,39.42,0,0,0,10.23,27.33Q241.65,160.17,256,160.17Z" fill="#e6d6a6"/><path d="M301.77,211.32c15.52-13.62,27.56-31.88,35.78-54.27,7.8-21.21,12.36-46.75,13.59-75.93a19.34,19.34,0,0,0-38.65-1.62c-1.67,39.84-10.09,70.17-25.06,90.49q-32.27-8.11-62.92-.09c-14.94-20.31-23.33-50.62-25-90.4a19.35,19.35,0,0,0-38.66,1.62c1.22,29.18,5.8,54.73,13.59,75.93,8.23,22.38,20.27,40.64,35.78,54.27a19.3,19.3,0,0,0,7.08,4v75.42C194.89,341,179.51,387.19,171.58,428a19.34,19.34,0,1,0,38,7.38c7.56-38.93,22.62-83.57,44.76-132.68a19.25,19.25,0,0,0,1.63-6.22,19.3,19.3,0,0,0,1.63,6.22c22.14,49.11,37.2,93.75,44.76,132.68a19.34,19.34,0,0,0,38-7.38c-7.92-40.75-23.27-86.86-45.63-137.1V215.27a19.18,19.18,0,0,0,7.09-4Z" fill="#e6d6a6"/></svg>